# Blender v2.68 (sub 0) OBJ File: ''
# www.blender.org
v 0.000000 0.375006 -9.000000
v 0.000000 0.374994 9.000000
v 0.073159 0.367800 -9.000000
v 0.073159 0.367789 9.000000
v 0.143506 0.346461 -9.000000
v 0.143506 0.346449 9.000000
v 0.208339 0.311807 -9.000000
v 0.208339 0.311795 9.000000
v 0.265165 0.265171 -9.000000
v 0.265165 0.265159 9.000000
v 0.311801 0.208345 -9.000000
v 0.311801 0.208333 9.000000
v 0.346455 0.143512 -9.000000
v 0.346455 0.143501 9.000000
v 0.367794 0.073165 -9.000000
v 0.367794 0.073153 9.000000
v 0.375000 0.000006 -9.000000
v 0.375000 -0.000006 9.000000
v 0.367794 -0.073153 -9.000000
v 0.367794 -0.073165 9.000000
v 0.346455 -0.143500 -9.000000
v 0.346455 -0.143512 9.000000
v 0.311801 -0.208333 -9.000000
v 0.311801 -0.208345 9.000000
v 0.265165 -0.265159 -9.000000
v 0.265165 -0.265171 9.000000
v 0.208339 -0.311795 -9.000000
v 0.208339 -0.311807 9.000000
v 0.143506 -0.346449 -9.000000
v 0.143506 -0.346461 9.000000
v 0.073159 -0.367789 -9.000000
v 0.073159 -0.367800 9.000000
v -0.000000 -0.374994 -9.000000
v -0.000000 -0.375006 9.000000
v -0.073159 -0.367789 -9.000000
v -0.073159 -0.367800 9.000000
v -0.143506 -0.346449 -9.000000
v -0.143506 -0.346460 9.000000
v -0.208339 -0.311795 -9.000000
v -0.208339 -0.311807 9.000000
v -0.265165 -0.265159 -9.000000
v -0.265165 -0.265171 9.000000
v -0.311801 -0.208333 -9.000000
v -0.311801 -0.208344 9.000000
v -0.346455 -0.143500 -9.000000
v -0.346455 -0.143512 9.000000
v -0.367795 -0.073153 -9.000000
v -0.367795 -0.073164 9.000000
v -0.375000 0.000006 -9.000000
v -0.375000 -0.000005 9.000000
v -0.367794 0.073165 -9.000000
v -0.367794 0.073153 9.000000
v -0.346455 0.143512 -9.000000
v -0.346455 0.143501 9.000000
v -0.311801 0.208345 -9.000000
v -0.311801 0.208333 9.000000
v -0.265165 0.265171 -9.000000
v -0.265165 0.265160 9.000000
v -0.208338 0.311807 -9.000000
v -0.208338 0.311796 9.000000
v -0.143506 0.346461 -9.000000
v -0.143506 0.346449 9.000000
v -0.073158 0.367800 -9.000000
v -0.073158 0.367789 9.000000
vn 0.098017 0.995185 0.000001
vn 0.290285 0.956940 0.000001
vn 0.471396 0.881921 0.000001
vn 0.634393 0.773010 0.000000
vn 0.773010 0.634394 0.000000
vn 0.881921 0.471396 0.000000
vn 0.956940 0.290285 0.000000
vn 0.995185 0.098018 0.000000
vn 0.995185 -0.098017 -0.000000
vn 0.956940 -0.290285 -0.000000
vn 0.881921 -0.471396 -0.000000
vn 0.773010 -0.634394 -0.000000
vn 0.634394 -0.773010 -0.000000
vn 0.471397 -0.881921 -0.000001
vn 0.290284 -0.956940 -0.000001
vn 0.098017 -0.995185 -0.000001
vn -0.098017 -0.995185 -0.000001
vn -0.290285 -0.956940 -0.000001
vn -0.471397 -0.881921 -0.000001
vn -0.634394 -0.773010 -0.000000
vn -0.773011 -0.634393 -0.000000
vn -0.881922 -0.471396 -0.000000
vn -0.956941 -0.290284 -0.000000
vn -0.995185 -0.098016 -0.000000
vn -0.995185 0.098018 0.000000
vn -0.956940 0.290286 0.000000
vn -0.881921 0.471398 0.000000
vn -0.773010 0.634394 0.000000
vn -0.634392 0.773012 0.000000
vn -0.471396 0.881922 0.000001
vn 0.000001 0.000000 1.000000
vn -0.098017 0.995185 0.000001
vn -0.290283 0.956941 0.000001
vn 0.000000 0.000000 -1.000000
s off
f 1//1 2//1 4//1 3//1
f 3//2 4//2 6//2 5//2
f 5//3 6//3 8//3 7//3
f 7//4 8//4 10//4 9//4
f 9//5 10//5 12//5 11//5
f 11//6 12//6 14//6 13//6
f 13//7 14//7 16//7 15//7
f 15//8 16//8 18//8 17//8
f 17//9 18//9 20//9 19//9
f 19//10 20//10 22//10 21//10
f 21//11 22//11 24//11 23//11
f 23//12 24//12 26//12 25//12
f 25//13 26//13 28//13 27//13
f 27//14 28//14 30//14 29//14
f 29//15 30//15 32//15 31//15
f 31//16 32//16 34//16 33//16
f 33//17 34//17 36//17 35//17
f 35//18 36//18 38//18 37//18
f 37//19 38//19 40//19 39//19
f 39//20 40//20 42//20 41//20
f 41//21 42//21 44//21 43//21
f 43//22 44//22 46//22 45//22
f 45//23 46//23 48//23 47//23
f 47//24 48//24 50//24 49//24
f 49//25 50//25 52//25 51//25
f 51//26 52//26 54//26 53//26
f 53//27 54//27 56//27 55//27
f 55//28 56//28 58//28 57//28
f 57//29 58//29 60//29 59//29
f 59//30 60//30 62//30 61//30
f 4//31 2//31 64//31 62//31 60//31 58//31 56//31 54//31 52//31 50//31 48//31 46//31 44//31 42//31 40//31 38//31 36//31 34//31 32//31 30//31 28//31 26//31 24//31 22//31 20//31 18//31 16//31 14//31 12//31 10//31 8//31 6//31
f 63//32 64//32 2//32 1//32
f 61//33 62//33 64//33 63//33
f 1//34 3//34 5//34 7//34 9//34 11//34 13//34 15//34 17//34 19//34 21//34 23//34 25//34 27//34 29//34 31//34 33//34 35//34 37//34 39//34 41//34 43//34 45//34 47//34 49//34 51//34 53//34 55//34 57//34 59//34 61//34 63//34
