# Blender v2.68 (sub 0) OBJ File: ''
# www.blender.org
v 0.000000 0.000000 0.000000
v -0.000000 -0.029300 -0.147100
v -0.000000 0.000000 -0.150000
v -0.000000 -0.057400 -0.138600
v -0.000000 -0.083300 -0.124700
v -0.000000 -0.106100 -0.106100
v -0.000000 -0.124700 -0.083300
v -0.000000 -0.138600 -0.057400
v -0.000000 -0.147100 -0.029300
v 0.000000 -0.150000 0.000000
v 0.000000 -0.147100 0.029300
v 0.000000 -0.138600 0.057400
v 0.000000 -0.124700 0.083300
v 0.000000 -0.106100 0.106100
v 0.000000 -0.083300 0.124700
v 0.000000 -0.057400 0.138600
v 0.000000 -0.029300 0.147100
v 0.000000 0.000000 0.150000
v 0.000000 0.029300 0.147100
v 0.000000 0.057400 0.138600
v 0.000000 0.083300 0.124700
v 0.000000 0.106100 0.106100
v 0.000000 0.124700 0.083300
v 0.000000 0.138600 0.057400
v 0.000000 0.147100 0.029300
v 0.000000 0.150000 0.000000
v -0.000000 0.147100 -0.029300
v -0.000000 0.138600 -0.057400
v -0.000000 0.124700 -0.083300
v -0.000000 0.106100 -0.106100
v -0.000000 0.083300 -0.124700
v -0.000000 0.057400 -0.138600
v -0.000000 0.029300 -0.147100
v -2.000000 -0.029300 -0.147099
v -2.000000 0.000000 -0.149999
v -2.000000 -0.057400 -0.138599
v -2.000000 -0.083300 -0.124699
v -2.000000 -0.106100 -0.106099
v -2.000000 -0.124700 -0.083299
v -2.000000 -0.138600 -0.057399
v -2.000000 -0.147100 -0.029299
v -2.000000 -0.150000 0.000001
v -2.000000 -0.147100 0.029301
v -2.000000 -0.138600 0.057401
v -2.000000 -0.124700 0.083301
v -2.000000 -0.106100 0.106101
v -2.000000 -0.083300 0.124701
v -2.000000 -0.057400 0.138601
v -2.000000 -0.029300 0.147101
v -2.000000 0.000000 0.150001
v -2.000000 0.029300 0.147101
v -2.000000 0.057400 0.138601
v -2.000000 0.083300 0.124701
v -2.000000 0.106100 0.106101
v -2.000000 0.124700 0.083301
v -2.000000 0.138600 0.057401
v -2.000000 0.147100 0.029301
v -2.000000 0.150000 0.000001
v -2.000000 0.147100 -0.029299
v -2.000000 0.138600 -0.057399
v -2.000000 0.124700 -0.083299
v -2.000000 0.106100 -0.106099
v -2.000000 0.083300 -0.124699
v -2.000000 0.057400 -0.138599
v -2.000000 0.029300 -0.147099
v -2.000000 0.000000 0.000001
vt 0.500000 0.000000
vt 0.781300 0.000000
vt 0.750000 0.000000
vt 0.812500 0.000000
vt 0.843700 0.000000
vt 0.875000 0.000000
vt 0.906200 0.000000
vt 0.937500 0.000000
vt 0.968800 0.000000
vt 1.000000 0.000000
vt 0.031300 0.000000
vt -0.000000 0.000000
vt 0.062500 0.000000
vt 0.093800 0.000000
vt 0.125000 0.000000
vt 0.156300 0.000000
vt 0.187500 0.000000
vt 0.218800 0.000000
vt 0.250000 0.000000
vt 0.281300 0.000000
vt 0.312500 0.000000
vt 0.343800 0.000000
vt 0.375000 0.000000
vt 0.406300 0.000000
vt 0.437500 0.000000
vt 0.468800 0.000000
vt 0.531300 0.000000
vt 0.562500 0.000000
vt 0.593800 0.000000
vt 0.625000 0.000000
vt 0.656300 0.000000
vt 0.687500 0.000000
vt 0.718800 0.000000
vt 0.781300 1.000000
vt 0.750000 1.000000
vt 0.812500 1.000000
vt 0.843700 1.000000
vt 0.875000 1.000000
vt 0.906200 1.000000
vt 0.937500 1.000000
vt 0.968800 1.000000
vt 1.000000 1.000000
vt 0.031300 1.000000
vt -0.000000 1.000000
vt 0.062500 1.000000
vt 0.093800 1.000000
vt 0.125000 1.000000
vt 0.156300 1.000000
vt 0.187500 1.000000
vt 0.218800 1.000000
vt 0.250000 1.000000
vt 0.281300 1.000000
vt 0.312500 1.000000
vt 0.343800 1.000000
vt 0.375000 1.000000
vt 0.406300 1.000000
vt 0.437500 1.000000
vt 0.468800 1.000000
vt 0.500000 1.000000
vt 0.531300 1.000000
vt 0.562500 1.000000
vt 0.593800 1.000000
vt 0.625000 1.000000
vt 0.656300 1.000000
vt 0.687500 1.000000
vt 0.718800 1.000000
vn 1.000000 -0.000000 -0.000001
vn -0.000001 -0.098495 -0.995138
vn -0.000001 -0.289534 -0.957168
vn -0.000001 -0.472882 -0.881126
vn -0.000000 -0.632127 -0.774865
vn -0.000000 -0.774865 -0.632127
vn -0.000000 -0.881126 -0.472882
vn -0.000000 -0.957168 -0.289534
vn -0.000000 -0.957168 -0.289535
vn -0.000000 -0.995138 -0.098495
vn 0.000000 -0.995138 0.098495
vn 0.000000 -0.957168 0.289535
vn 0.000000 -0.881126 0.472882
vn 0.000000 -0.774865 0.632127
vn 0.000000 -0.632127 0.774865
vn 0.000001 -0.472882 0.881126
vn 0.000001 -0.289535 0.957168
vn 0.000001 -0.098495 0.995138
vn 0.000001 0.098495 0.995138
vn 0.000001 0.289535 0.957168
vn 0.000001 0.472882 0.881126
vn 0.000000 0.632127 0.774865
vn 0.000000 0.774865 0.632127
vn 0.000000 0.881126 0.472882
vn 0.000000 0.957168 0.289535
vn 0.000000 0.995138 0.098495
vn -0.000000 0.995138 -0.098495
vn -0.000000 0.957168 -0.289534
vn -0.000000 0.957168 -0.289535
vn -0.000000 0.881126 -0.472882
vn -0.000000 0.774865 -0.632127
vn -0.000000 0.632127 -0.774865
vn -0.000001 0.472882 -0.881126
vn -0.000001 0.289534 -0.957168
vn -0.000001 0.098495 -0.995138
vn -1.000000 0.000000 0.000000
vn -1.000000 0.000002 0.000003
vn -1.000000 -0.000001 0.000001
vn -1.000000 -0.000000 0.000001
vn -1.000000 0.000001 0.000001
vn -1.000000 -0.000002 0.000003
s off
f 1/1/1 2/2/1 3/3/1
f 1/1/1 4/4/1 2/2/1
f 1/1/1 5/5/1 4/4/1
f 1/1/1 6/6/1 5/5/1
f 1/1/1 7/7/1 6/6/1
f 1/1/1 8/8/1 7/7/1
f 1/1/1 9/9/1 8/8/1
f 1/1/1 10/10/1 9/9/1
f 1/1/1 11/11/1 10/12/1
f 1/1/1 12/13/1 11/11/1
f 1/1/1 13/14/1 12/13/1
f 1/1/1 14/15/1 13/14/1
f 1/1/1 15/16/1 14/15/1
f 1/1/1 16/17/1 15/16/1
f 1/1/1 17/18/1 16/17/1
f 1/1/1 18/19/1 17/18/1
f 1/1/1 19/20/1 18/19/1
f 1/1/1 20/21/1 19/20/1
f 1/1/1 21/22/1 20/21/1
f 1/1/1 22/23/1 21/22/1
f 1/1/1 23/24/1 22/23/1
f 1/1/1 24/25/1 23/24/1
f 1/1/1 25/26/1 24/25/1
f 1/1/1 26/1/1 25/26/1
f 1/1/1 27/27/1 26/1/1
f 1/1/1 28/28/1 27/27/1
f 1/1/1 29/29/1 28/28/1
f 1/1/1 30/30/1 29/29/1
f 1/1/1 31/31/1 30/30/1
f 1/1/1 32/32/1 31/31/1
f 1/1/1 33/33/1 32/32/1
f 1/1/1 3/3/1 33/33/1
f 3/3/2 34/34/2 35/35/2
f 3/3/2 2/2/2 34/34/2
f 2/2/3 36/36/3 34/34/3
f 2/2/3 4/4/3 36/36/3
f 4/4/4 37/37/4 36/36/4
f 4/4/4 5/5/4 37/37/4
f 5/5/5 38/38/5 37/37/5
f 5/5/5 6/6/5 38/38/5
f 6/6/6 39/39/6 38/38/6
f 6/6/6 7/7/6 39/39/6
f 7/7/7 40/40/7 39/39/7
f 7/7/7 8/8/7 40/40/7
f 8/8/8 41/41/8 40/40/8
f 8/8/9 9/9/9 41/41/9
f 9/9/10 42/42/10 41/41/10
f 9/9/10 10/10/10 42/42/10
f 10/12/11 43/43/11 42/44/11
f 10/12/11 11/11/11 43/43/11
f 11/11/12 44/45/12 43/43/12
f 11/11/12 12/13/12 44/45/12
f 12/13/13 45/46/13 44/45/13
f 12/13/13 13/14/13 45/46/13
f 13/14/14 46/47/14 45/46/14
f 13/14/14 14/15/14 46/47/14
f 14/15/15 47/48/15 46/47/15
f 14/15/15 15/16/15 47/48/15
f 15/16/16 48/49/16 47/48/16
f 15/16/16 16/17/16 48/49/16
f 16/17/17 49/50/17 48/49/17
f 16/17/17 17/18/17 49/50/17
f 17/18/18 50/51/18 49/50/18
f 17/18/18 18/19/18 50/51/18
f 18/19/19 51/52/19 50/51/19
f 18/19/19 19/20/19 51/52/19
f 19/20/20 52/53/20 51/52/20
f 19/20/20 20/21/20 52/53/20
f 20/21/21 53/54/21 52/53/21
f 20/21/21 21/22/21 53/54/21
f 21/22/22 54/55/22 53/54/22
f 21/22/22 22/23/22 54/55/22
f 22/23/23 55/56/23 54/55/23
f 22/23/23 23/24/23 55/56/23
f 23/24/24 56/57/24 55/56/24
f 23/24/24 24/25/24 56/57/24
f 24/25/25 57/58/25 56/57/25
f 24/25/25 25/26/25 57/58/25
f 25/26/26 58/59/26 57/58/26
f 25/26/26 26/1/26 58/59/26
f 26/1/27 59/60/27 58/59/27
f 26/1/27 27/27/27 59/60/27
f 27/27/28 60/61/28 59/60/28
f 27/27/29 28/28/29 60/61/29
f 28/28/30 61/62/30 60/61/30
f 28/28/30 29/29/30 61/62/30
f 29/29/31 62/63/31 61/62/31
f 29/29/31 30/30/31 62/63/31
f 30/30/32 63/64/32 62/63/32
f 30/30/32 31/31/32 63/64/32
f 31/31/33 64/65/33 63/64/33
f 31/31/33 32/32/33 64/65/33
f 32/32/34 65/66/34 64/65/34
f 32/32/34 33/33/34 65/66/34
f 33/33/35 35/35/35 65/66/35
f 33/33/35 3/3/35 35/35/35
f 66/59/36 35/35/36 34/34/36
f 66/59/36 34/34/36 36/36/36
f 66/59/36 36/36/36 37/37/36
f 66/59/36 37/37/36 38/38/36
f 66/59/36 38/38/36 39/39/36
f 66/59/36 39/39/36 40/40/36
f 66/59/36 40/40/36 41/41/36
f 66/59/36 41/41/36 42/42/36
f 66/59/36 42/44/36 43/43/36
f 66/59/36 43/43/36 44/45/36
f 66/59/36 44/45/36 45/46/36
f 66/59/37 45/46/37 46/47/37
f 66/59/38 46/47/38 47/48/38
f 66/59/39 47/48/39 48/49/39
f 66/59/39 48/49/39 49/50/39
f 66/59/39 49/50/39 50/51/39
f 66/59/39 50/51/39 51/52/39
f 66/59/39 51/52/39 52/53/39
f 66/59/39 52/53/39 53/54/39
f 66/59/40 53/54/40 54/55/40
f 66/59/41 54/55/41 55/56/41
f 66/59/36 55/56/36 56/57/36
f 66/59/36 56/57/36 57/58/36
f 66/59/36 57/58/36 58/59/36
f 66/59/36 58/59/36 59/60/36
f 66/59/36 59/60/36 60/61/36
f 66/59/36 60/61/36 61/62/36
f 66/59/36 61/62/36 62/63/36
f 66/59/36 62/63/36 63/64/36
f 66/59/36 63/64/36 64/65/36
f 66/59/36 64/65/36 65/66/36
f 66/59/36 65/66/36 35/35/36
